<?xml version="1.0" standalone="no"?>
<!DOCTYPE svg PUBLIC "-//W3C//DTD SVG 20010904//EN"
 "http://www.w3.org/TR/2001/REC-SVG-20010904/DTD/svg10.dtd">
<svg version="1.0" xmlns="http://www.w3.org/2000/svg"
 width="261.000000pt" height="261.000000pt" viewBox="0 0 261.000000 261.000000"
 preserveAspectRatio="xMidYMid meet">
<metadata>
Created by potrace 1.11, written by Peter Selinger 2001-2013
</metadata>
<g transform="translate(0.000000,261.000000) scale(0.100000,-0.100000)"
fill="#000000" stroke="none">
<path d="M661 2564 c-5 -22 -44 -174 -86 -339 -111 -438 -233 -916 -325 -1275
-44 -173 -82 -322 -84 -330 -2 -8 -27 -106 -56 -218 -28 -112 -53 -211 -55
-220 -2 -9 -13 -51 -24 -92 -11 -41 -16 -77 -11 -80 10 -6 178 -5 184 1 1 2
47 177 100 389 54 212 131 516 171 675 41 160 112 443 160 630 47 187 89 348
93 359 7 17 9 17 25 -7 20 -30 640 -863 663 -891 17 -20 8 -37 335 634 l76
155 31 -100 c17 -55 52 -167 78 -250 25 -82 65 -213 89 -290 74 -237 336
-1087 352 -1140 8 -27 23 -77 34 -110 l19 -60 88 1 c48 0 87 5 86 10 -1 10 -7
29 -84 274 -28 91 -57 183 -65 205 -7 22 -34 108 -60 190 -26 83 -56 177 -67
210 -10 33 -21 67 -23 75 -2 8 -10 35 -18 60 -8 25 -28 88 -45 140 -43 138
-137 434 -187 590 -24 74 -82 261 -131 415 -48 154 -90 284 -94 288 -4 4 -94
-195 -201 -442 -107 -248 -197 -450 -201 -448 -4 1 -171 229 -373 507 -202
278 -370 509 -375 514 -5 5 -13 -9 -19 -30z"/>
<path d="M1896 1398 c-22 -36 -468 -747 -569 -908 -50 -80 -98 -155 -107 -166
-15 -21 -19 -16 -131 170 -64 105 -185 305 -269 444 l-153 253 -28 -33 c-16
-18 -40 -49 -54 -70 -29 -40 -30 -34 27 -128 12 -19 26 -44 32 -55 33 -59 343
-578 372 -622 19 -29 33 -54 32 -54 -2 -1 -158 -3 -348 -4 -190 -1 -347 -3
-350 -4 -3 0 -6 -43 -6 -95 0 -78 3 -95 15 -98 9 -2 450 -3 981 -3 l965 0 1
98 c1 64 -3 97 -10 98 -15 1 -235 -2 -361 -6 -600 -18 -607 -18 -596 3 10 19
165 261 296 462 34 52 92 142 129 200 37 58 107 166 155 240 l88 135 -39 77
c-21 43 -43 80 -48 83 -5 3 -16 -5 -24 -17z"/>
</g>
</svg>
