<?xml version="1.0" standalone="no"?>
<!DOCTYPE svg PUBLIC "-//W3C//DTD SVG 20010904//EN"
 "http://www.w3.org/TR/2001/REC-SVG-20010904/DTD/svg10.dtd">
<svg version="1.0" xmlns="http://www.w3.org/2000/svg"
 width="700.000000pt" height="700.000000pt" viewBox="0 0 700.000000 700.000000"
 preserveAspectRatio="xMidYMid meet">
<metadata>
Created by potrace 1.11, written by Peter Selinger 2001-2013
</metadata>
<g transform="translate(0.000000,700.000000) scale(0.100000,-0.100000)"
fill="#000000" stroke="none">
<path d="M1556 5753 c-28 -96 -1216 -4496 -1214 -4498 2 -1 109 -5 238 -9
l235 -7 504 1808 c278 994 512 1832 521 1861 l15 53 880 -907 c484 -499 879
-912 877 -918 -6 -20 -645 -1201 -656 -1214 -10 -10 -153 129 -675 653 -365
366 -664 665 -666 663 -1 -2 -28 -95 -60 -208 -32 -113 -59 -210 -62 -216 -2
-6 277 -285 621 -620 l624 -609 -801 -5 -801 -5 -33 -160 c-18 -88 -33 -161
-33 -162 0 -2 1107 -3 2459 -3 l2460 0 -67 165 -67 165 -1326 2 -1326 3 361
616 c347 592 384 650 935 1478 316 474 578 858 582 854 4 -5 261 -744 572
-1643 l565 -1635 221 -3 c122 -1 221 -1 221 1 0 3 -671 1985 -1296 3830 -82
240 -152 436 -156 435 -3 -2 -305 -416 -669 -921 l-662 -918 -31 29 c-57 53
-2251 2037 -2268 2050 -14 11 -17 10 -22 -5z"/>
</g>
</svg>
