<svg width="109" height="81" viewBox="0 0 109 81" fill="none" xmlns="http://www.w3.org/2000/svg">
<path d="M58.1777 21.0586V11.9206M58.1777 11.9206V2.92882C63.0837 6.39406 65.219 0.32973 70.1777 2.21383V9.76867C65.9115 8.57609 63.3881 12.9042 58.1777 11.9206Z" stroke="#333333" stroke-width="2"/>
<path d="M19.5713 77.7924L26.3159 62.6845L33.0605 47.5766L38.0781 54.591L46.5546 40.7691M107.518 77.7924L90.1909 54.591L82.7008 68.6197L68.9493 41.7146M46.5546 40.7691L57.8806 20.0586L68.9493 41.7146M46.5546 40.7691L51.9971 45.4675L57.8806 40.0827L64.2028 45.4675L68.9493 41.7146" stroke="#333333" stroke-width="2"/>
<path d="M43.2902 47.489L31.9849 27.9619L1.83691 79.6928" stroke="#333333" stroke-width="2"/>
<path d="M25.2305 39.1065L28.5674 42.7002L32.1168 37.9941L36.0092 42.2582L38.0742 39.1065" stroke="#333333" stroke-width="2"/>
</svg>
