<svg width="78" height="65" viewBox="0 0 78 65" fill="none" xmlns="http://www.w3.org/2000/svg">
<path d="M37.3801 4.23876L32.228 37.7564C36.9741 55.3002 30.8187 63.5392 17.201 63.5392C3.74985 61.9821 -3.6108 48.6737 5.60864 37.7564L21.0651 4.23876C27.1409 0.677421 30.6637 0.0927542 37.3801 4.23876ZM37.3801 4.23876L36.1691 12.1175H39.1849" stroke="white" stroke-width="1.5"/>
<path d="M40.6238 4.23876L45.7759 37.7564C41.0298 55.3002 47.1852 63.5392 60.8029 63.5392C74.2541 61.9821 81.6147 48.6737 72.3953 37.7564L56.9388 4.23876C50.863 0.677421 47.3402 0.0927542 40.6238 4.23876ZM40.6238 4.23876L41.8338 12.1106H40.33H38.974" stroke="white" stroke-width="1.5"/>
<path d="M27.1847 47.6399C27.1847 52.9221 22.9065 57.2031 17.6304 57.2031C12.3544 57.2031 8.07617 52.9221 8.07617 47.6399C8.07617 42.3577 12.3544 38.0768 17.6304 38.0768C22.9065 38.0768 27.1847 42.3577 27.1847 47.6399Z" stroke="white" stroke-width="1.5"/>
<path d="M68.8625 47.6399C68.8625 52.9221 64.5843 57.2031 59.3082 57.2031C54.0321 57.2031 49.7539 52.9221 49.7539 47.6399C49.7539 42.3577 54.0321 38.0768 59.3082 38.0768C64.5843 38.0768 68.8625 42.3577 68.8625 47.6399Z" stroke="white" stroke-width="1.5"/>
<path d="M33.3477 43.9209C37.7226 45.9953 40.6182 46.3329 44.3536 43.9209" stroke="white" stroke-width="1.5"/>
<path d="M42.1779 38.6141C42.1779 40.3004 40.8123 41.6663 39.129 41.6663C37.4457 41.6663 36.0801 40.3004 36.0801 38.6141C36.0801 36.9278 37.4457 35.5619 39.129 35.5619C40.8123 35.5619 42.1779 36.9278 42.1779 38.6141Z" stroke="white" stroke-width="1.5"/>
</svg>
