<svg width="78" height="65" viewBox="0 0 78 65" fill="none" xmlns="http://www.w3.org/2000/svg">
<path d="M36.8794 4.42831L31.7273 37.9173C36.4734 55.4461 30.318 63.6781 16.7001 63.6781C3.24889 62.1223 -4.11181 48.8253 5.10769 37.9173L20.5643 4.42831C26.6401 0.870006 30.163 0.285839 36.8794 4.42831ZM36.8794 4.42831L35.6683 12.3003H38.6843" stroke="#333333" stroke-width="2"/>
<path d="M40.1225 4.42831L45.2747 37.9173C40.5286 55.4461 46.684 63.6781 60.3018 63.6781C73.7531 62.1223 81.1138 48.8253 71.8943 37.9173L56.4377 4.42831C50.3618 0.870006 46.839 0.285839 40.1225 4.42831ZM40.1225 4.42831L41.3326 12.2935H39.8287H38.4727" stroke="#333333" stroke-width="2"/>
<circle cx="17.1295" cy="47.7924" r="9.30435" stroke="#333333" stroke-width="2"/>
<circle cx="58.8073" cy="47.7924" r="9.30435" stroke="#333333" stroke-width="2"/>
<path d="M32.8467 44.0767C37.2217 46.1493 40.1173 46.4866 43.8527 44.0767" stroke="#333333" stroke-width="2"/>
<circle cx="38.6281" cy="38.7743" r="2.79895" stroke="#333333" stroke-width="2"/>
</svg>
