<svg width="31" height="63" viewBox="0 0 31 63" fill="none" xmlns="http://www.w3.org/2000/svg">
<line y1="-1" x2="3.33333" y2="-1" transform="matrix(-0.999969 0.00782811 -0.0101492 -0.999949 28.2891 30.4758)" stroke="#333333" stroke-width="2"/>
<line y1="-1" x2="3.23965" y2="-1" transform="matrix(0.89562 0.44482 -0.541401 0.840765 23.7207 36.5747)" stroke="#333333" stroke-width="2"/>
<line y1="-1" x2="3.03725" y2="-1" transform="matrix(0.557192 0.830384 -0.88811 0.459631 20.168 39.6835)" stroke="#333333" stroke-width="2"/>
<line y1="-1" x2="3.24135" y2="-1" transform="matrix(-0.897714 0.440578 -0.536843 -0.843682 26.623 24.4955)" stroke="#333333" stroke-width="2"/>
<line y1="-1" x2="3.03585" y2="-1" transform="matrix(0.553828 -0.832631 0.889744 0.456461 21.8604 23.0468)" stroke="#333333" stroke-width="2"/>
<line x1="16.0312" y1="17.9212" x2="16.0312" y2="20.8486" stroke="#333333" stroke-width="2"/>
<line y1="-1" x2="3.33333" y2="-1" transform="matrix(0.999969 -0.00782809 0.0101492 0.999949 2.23535 32.1028)" stroke="#333333" stroke-width="2"/>
<line y1="-1" x2="3.23965" y2="-1" transform="matrix(-0.89562 -0.44482 0.541401 -0.840764 6.80371 25.9236)" stroke="#333333" stroke-width="2"/>
<line y1="-1" x2="3.03725" y2="-1" transform="matrix(-0.557193 -0.830383 0.88811 -0.45963 10.334 22.1097)" stroke="#333333" stroke-width="2"/>
<line y1="-1" x2="3.24135" y2="-1" transform="matrix(0.897714 -0.440578 0.536844 0.843682 4.11426 38.0157)" stroke="#333333" stroke-width="2"/>
<line y1="-1" x2="2.92744" y2="-1" transform="matrix(-0.00579661 0.999983 -0.99999 -0.00447087 15.0312 40.7419)" stroke="#333333" stroke-width="2"/>
<line y1="-1" x2="3.03585" y2="-1" transform="matrix(-0.553829 0.832631 -0.889744 -0.45646 9.48242 39.1159)" stroke="#333333" stroke-width="2"/>
<path d="M14.9727 23.4434C14.9727 23.2243 15.1503 23.0468 15.3693 23.0468C15.5884 23.0468 15.766 23.2243 15.766 23.4434V29.9827H14.9727V23.4434Z" fill="#333333"/>
<path d="M22.3055 30.4888C22.5246 30.4888 22.7021 30.6664 22.7021 30.8855C22.7021 31.1046 22.5246 31.2822 22.3055 31.2822H15.7662V30.4888H22.3055Z" fill="#333333"/>
<circle cx="15.3691" cy="30.8855" r="14" stroke="#333333" stroke-width="2"/>
<circle cx="15.3696" cy="30.8855" r="1.21728" fill="#333333"/>
<path d="M8.05664 18.4578V1.50195H21.8891V17.5654" stroke="#333333" stroke-width="2"/>
<path d="M21.8887 44.0856L21.8887 61.0415H8.05623L8.05623 43.6693" stroke="#333333" stroke-width="2"/>
</svg>
