<svg width="53" height="59" viewBox="0 0 53 59" fill="none" xmlns="http://www.w3.org/2000/svg">
<path d="M18.1005 8.14712L18.3657 8.84869L18.4806 8.80525L18.5757 8.7274L18.1005 8.14712ZM1.30664 24.1776L0.595773 23.9385C0.477789 24.2893 0.63332 24.6737 0.962033 24.8438C1.29075 25.0138 1.69436 24.9187 1.9125 24.6197L1.30664 24.1776ZM46.9173 57.3838L46.2537 57.7331L46.6721 58.528L47.3796 57.9744L46.9173 57.3838ZM51.3066 53.9486L51.7689 54.5393L52.3299 54.1002L51.9202 53.5173L51.3066 53.9486ZM23.1722 11.2375L22.9181 11.9432L23.1663 12.0326L23.4158 11.9469L23.1722 11.2375ZM32.0473 5.91802L32.4755 6.53377L32.8935 6.24314L32.7777 5.74741L32.0473 5.91802ZM29.1693 1.46777L29.6676 0.907275L29.3358 0.612316L28.9176 0.761235L29.1693 1.46777ZM17.8354 7.44555C10.176 10.3402 6.36646 12.7781 4.21898 15.4115C2.08784 18.0248 1.64359 20.8232 0.595773 23.9385L2.01751 24.4167C3.15832 21.0249 3.47887 18.6925 5.38144 16.3595C7.26767 14.0465 10.7608 11.7227 18.3657 8.84869L17.8354 7.44555ZM1.9125 24.6197C4.59943 20.9373 6.68829 18.3138 8.90793 16.5454C11.0911 14.806 13.419 13.8814 16.624 13.6664L16.5236 12.1698C13.0307 12.4041 10.4078 13.4325 7.97323 15.3722C5.57513 17.2829 3.37935 20.0646 0.700776 23.7356L1.9125 24.6197ZM16.624 13.6664C16.8355 13.6523 17.1693 13.7265 17.6508 13.9972C18.1227 14.2626 18.6724 14.6806 19.2928 15.2516C20.5328 16.393 21.975 18.0704 23.544 20.1308C26.678 24.2459 30.2451 29.7908 33.6153 35.3703C36.9829 40.9454 40.1428 46.5366 42.4615 50.7354C43.6207 52.8344 44.5691 54.5846 45.2276 55.8098C45.5569 56.4223 45.8136 56.9036 45.9879 57.2315C46.0751 57.3955 46.1416 57.5211 46.1863 57.6056C46.2087 57.6479 46.2256 57.6798 46.2369 57.7012C46.2425 57.7119 46.2467 57.7199 46.2495 57.7253C46.2509 57.7279 46.252 57.7299 46.2527 57.7312C46.253 57.7319 46.2533 57.7324 46.2535 57.7327C46.2536 57.733 46.2537 57.7331 46.9173 57.3838C47.581 57.0344 47.5809 57.0342 47.5807 57.0338C47.5805 57.0334 47.5802 57.0329 47.5798 57.0322C47.5791 57.0307 47.578 57.0286 47.5765 57.0259C47.5736 57.0203 47.5692 57.0121 47.5635 57.0012C47.552 56.9794 47.5349 56.947 47.5123 56.9042C47.4671 56.8188 47.4 56.6923 47.3124 56.5274C47.1371 56.1976 46.8793 55.7143 46.5489 55.0996C45.8881 53.8702 44.9369 52.115 43.7746 50.0103C41.4504 45.8016 38.2804 40.1922 34.8993 34.5947C31.5209 29.0016 27.9208 23.402 24.7374 19.222C23.1478 17.1347 21.6438 15.3769 20.3086 14.148C19.6415 13.5339 18.9963 13.0329 18.386 12.6897C17.7852 12.3519 17.1494 12.1278 16.5236 12.1698L16.624 13.6664ZM47.3796 57.9744L51.7689 54.5393L50.8444 53.358L46.4551 56.7931L47.3796 57.9744ZM51.3066 53.9486C51.9202 53.5173 51.9201 53.5172 51.9199 53.5169C51.9197 53.5165 51.9193 53.516 51.9188 53.5154C51.9179 53.5141 51.9165 53.5121 51.9147 53.5095C51.911 53.5042 51.9055 53.4963 51.8981 53.4859C51.8834 53.465 51.8615 53.4337 51.8325 53.3925C51.7747 53.3101 51.6888 53.1878 51.5769 53.0283C51.3531 52.7092 51.0251 52.2413 50.6085 51.646C49.7754 50.4555 48.5879 48.7557 47.1708 46.7187C44.3364 42.6445 40.5841 37.2224 36.9112 31.8294C33.2372 26.4348 29.6469 21.0755 27.1345 17.1246C25.8761 15.1456 24.8981 13.5356 24.3153 12.4553C24.0173 11.9029 23.8486 11.5357 23.7863 11.3399C23.772 11.2949 23.7702 11.2797 23.7712 11.2869C23.7719 11.2913 23.7744 11.3101 23.774 11.3395C23.7737 11.3675 23.7705 11.4209 23.751 11.4881C23.7049 11.6477 23.5667 11.8621 23.2966 11.9445C23.0914 12.0071 22.9371 11.95 22.9181 11.9432L23.4264 10.5319C23.3284 10.4966 23.1113 10.4328 22.859 10.5098C22.5418 10.6065 22.3722 10.8564 22.31 11.0718C22.2586 11.2496 22.2736 11.4111 22.2866 11.5011C22.3015 11.6042 22.3283 11.7047 22.3568 11.7945C22.466 12.1376 22.6967 12.6142 22.9952 13.1674C23.6053 14.2984 24.6081 15.9469 25.8687 17.9294C28.3945 21.9014 31.9959 27.2769 35.6714 32.6738C39.3482 38.0724 43.1035 43.4989 45.9394 47.5753C47.3575 49.6136 48.5457 51.3146 49.3796 52.5061C49.7965 53.1018 50.1248 53.5702 50.3489 53.8897C50.461 54.0494 50.547 54.1719 50.605 54.2545C50.634 54.2958 50.656 54.3272 50.6707 54.3482C50.6781 54.3587 50.6837 54.3666 50.6874 54.3719C50.6893 54.3746 50.6907 54.3766 50.6916 54.3779C50.6921 54.3786 50.6925 54.3791 50.6927 54.3794C50.6929 54.3798 50.6931 54.3799 51.3066 53.9486ZM32.7777 5.74741C32.5268 4.6736 32.3393 3.9301 31.8817 3.21244C31.437 2.51516 30.7607 1.87915 29.6676 0.907275L28.6709 2.02827C29.796 3.0286 30.3043 3.52867 30.6169 4.01894C30.9166 4.48884 31.059 4.98436 31.317 6.08863L32.7777 5.74741ZM28.9176 0.761235C24.0581 2.49174 21.6664 4.25788 17.6254 7.56684L18.5757 8.7274C22.5641 5.4615 24.7994 3.82005 29.4209 2.17431L28.9176 0.761235ZM23.4158 11.9469C27.4059 10.577 29.285 8.75241 32.4755 6.53377L31.6191 5.30226C28.27 7.63122 26.6587 9.24764 22.9287 10.5282L23.4158 11.9469Z" fill="white"/>
</svg>
