<svg width="35" height="35" viewBox="0 0 35 35" fill="none" xmlns="http://www.w3.org/2000/svg">
<path d="M17.5 0.533203C7.83125 0.533203 0 8.36883 0 18.0332C0 25.7667 5.01375 32.3249 11.9656 34.6363C12.8406 34.8011 13.1615 34.2601 13.1615 33.7949C13.1615 33.3792 13.1469 32.2782 13.1396 30.8199C8.27167 31.8757 7.245 28.472 7.245 28.472C6.44875 26.4522 5.29812 25.9126 5.29812 25.9126C3.71292 24.8276 5.42063 24.8495 5.42063 24.8495C7.17792 24.972 8.10104 26.652 8.10104 26.652C9.66146 29.328 12.1975 28.5551 13.1979 28.1074C13.3554 26.9757 13.806 26.2042 14.3063 25.7667C10.4198 25.3292 6.335 23.8242 6.335 17.1188C6.335 15.2084 7.01313 13.648 8.13604 12.423C7.93917 11.9811 7.34854 10.202 8.28917 7.79133C8.28917 7.79133 9.75479 7.32175 13.1017 9.58508C14.5017 9.1957 15.9892 9.0032 17.4767 8.99445C18.9642 9.0032 20.4517 9.1957 21.8517 9.58508C25.1767 7.32175 26.6423 7.79133 26.6423 7.79133C27.5829 10.202 26.9923 11.9811 26.8173 12.423C27.9329 13.648 28.611 15.2084 28.611 17.1188C28.611 23.8417 24.5204 25.322 20.6267 25.7522C21.2392 26.2772 21.8079 27.3505 21.8079 28.9897C21.8079 31.3317 21.786 33.213 21.786 33.7817C21.786 34.2411 22.0923 34.788 22.9892 34.613C29.9906 32.3176 35 25.7551 35 18.0332C35 8.36883 27.1644 0.533203 17.5 0.533203" fill="white"/>
</svg>
