<svg width="113" height="103" viewBox="0 0 113 103" fill="none" xmlns="http://www.w3.org/2000/svg">
<g filter="url(#filter0_d)">
<path d="M32.1706 74.2093C19.5313 70.2459 19.864 62.7258 34.8789 60.2636C55.6265 59.7235 67.6828 59.0155 82.5438 64.0843C91.4853 67.1341 89.1658 75.6549 79.2939 76.8838C56.2734 79.7495 46.0531 78.5626 32.1706 74.2093Z" stroke="white" stroke-width="1.5"/>
</g>
<g filter="url(#filter1_d)">
<path d="M24.1896 56.0911C18.1392 54.634 18.3183 49.883 24.1896 49.5631C57.5827 47.7433 84.0961 43.8775 86.6236 49.5631C87.825 52.2656 92.943 56.0911 86.6236 57.9863C66.3039 61.1757 52.0798 60.2248 24.1896 56.0911Z" stroke="white" stroke-width="1.5"/>
</g>
<g filter="url(#filter2_d)">
<path d="M39.3681 45.5547C30.1618 43.8606 31.9202 40.1472 39.3681 35.8138C53.1818 31.3669 60.5843 30.4293 72.4085 34.3315C80.2642 38.5666 78.639 40.896 72.4085 43.8606C56.1606 49.5781 51.0056 47.1902 39.3681 45.5547Z" stroke="white" stroke-width="1.5"/>
</g>
<g filter="url(#filter3_d)">
<path d="M74.8503 19.0804C69.1613 14.7218 23.1217 28.0404 23.123 33.61C23.1244 39.1797 29.8935 37.0002 29.8935 37.0002C49.6125 33.4541 60.2732 31.3535 74.8503 26.3452C74.8503 26.3452 80.5392 23.439 74.8503 19.0804Z" stroke="white" stroke-width="1.5"/>
</g>
<defs>
<filter id="filter0_d" x="4.37305" y="42.1372" width="106.504" height="60.0581" filterUnits="userSpaceOnUse" color-interpolation-filters="sRGB">
<feFlood flood-opacity="0" result="BackgroundImageFix"/>
<feColorMatrix in="SourceAlpha" type="matrix" values="0 0 0 0 0 0 0 0 0 0 0 0 0 0 0 0 0 0 127 0"/>
<feOffset dx="2" dy="3"/>
<feGaussianBlur stdDeviation="10"/>
<feColorMatrix type="matrix" values="0 0 0 0 0 0 0 0 0 0 0 0 0 0 0 0 0 0 0.25 0"/>
<feBlend mode="normal" in2="BackgroundImageFix" result="effect1_dropShadow"/>
<feBlend mode="normal" in="SourceGraphic" in2="effect1_dropShadow" result="shape"/>
</filter>
<filter id="filter1_d" x="0.96875" y="28.8313" width="111.5" height="54.8064" filterUnits="userSpaceOnUse" color-interpolation-filters="sRGB">
<feFlood flood-opacity="0" result="BackgroundImageFix"/>
<feColorMatrix in="SourceAlpha" type="matrix" values="0 0 0 0 0 0 0 0 0 0 0 0 0 0 0 0 0 0 127 0"/>
<feOffset dx="2" dy="3"/>
<feGaussianBlur stdDeviation="10"/>
<feColorMatrix type="matrix" values="0 0 0 0 0 0 0 0 0 0 0 0 0 0 0 0 0 0 0.25 0"/>
<feBlend mode="normal" in2="BackgroundImageFix" result="effect1_dropShadow"/>
<feBlend mode="normal" in="SourceGraphic" in2="effect1_dropShadow" result="shape"/>
</filter>
<filter id="filter2_d" x="14.3555" y="14.1265" width="86.1036" height="57.0946" filterUnits="userSpaceOnUse" color-interpolation-filters="sRGB">
<feFlood flood-opacity="0" result="BackgroundImageFix"/>
<feColorMatrix in="SourceAlpha" type="matrix" values="0 0 0 0 0 0 0 0 0 0 0 0 0 0 0 0 0 0 127 0"/>
<feOffset dx="2" dy="3"/>
<feGaussianBlur stdDeviation="10"/>
<feColorMatrix type="matrix" values="0 0 0 0 0 0 0 0 0 0 0 0 0 0 0 0 0 0 0.25 0"/>
<feBlend mode="normal" in2="BackgroundImageFix" result="effect1_dropShadow"/>
<feBlend mode="normal" in="SourceGraphic" in2="effect1_dropShadow" result="shape"/>
</filter>
<filter id="filter3_d" x="4.37305" y="0.468994" width="95.7558" height="60.7013" filterUnits="userSpaceOnUse" color-interpolation-filters="sRGB">
<feFlood flood-opacity="0" result="BackgroundImageFix"/>
<feColorMatrix in="SourceAlpha" type="matrix" values="0 0 0 0 0 0 0 0 0 0 0 0 0 0 0 0 0 0 127 0"/>
<feOffset dx="2" dy="3"/>
<feGaussianBlur stdDeviation="10"/>
<feColorMatrix type="matrix" values="0 0 0 0 0 0 0 0 0 0 0 0 0 0 0 0 0 0 0.25 0"/>
<feBlend mode="normal" in2="BackgroundImageFix" result="effect1_dropShadow"/>
<feBlend mode="normal" in="SourceGraphic" in2="effect1_dropShadow" result="shape"/>
</filter>
</defs>
</svg>
