<svg width="35" height="35" viewBox="0 0 35 35" fill="none" xmlns="http://www.w3.org/2000/svg">
<path d="M29.8185 29.8258H24.6356V21.7044C24.6356 19.7677 24.5963 17.2754 21.9348 17.2754C19.2325 17.2754 18.8198 19.3827 18.8198 21.5615V29.8258H13.6369V13.125H18.6156V15.4015H18.6827C19.3783 14.089 21.07 12.7035 23.5973 12.7035C28.8488 12.7035 29.82 16.1598 29.82 20.6588V29.8258H29.8185ZM7.78313 10.8398C6.11479 10.8398 4.77458 9.48938 4.77458 7.82833C4.77458 6.16875 6.11625 4.81979 7.78313 4.81979C9.44563 4.81979 10.7931 6.16875 10.7931 7.82833C10.7931 9.48938 9.44417 10.8398 7.78313 10.8398ZM10.3819 29.8258H5.18438V13.125H10.3819V29.8258ZM32.4115 0H2.58271C1.155 0 0 1.12875 0 2.52146V32.4785C0 33.8727 1.155 35 2.58271 35H32.4071C33.8333 35 35 33.8727 35 32.4785V2.52146C35 1.12875 33.8333 0 32.4071 0H32.4115Z" fill="white"/>
</svg>
