<svg width="60" height="41" viewBox="0 0 60 41" fill="none" xmlns="http://www.w3.org/2000/svg">
<g clip-path="url(#clip0)">
<path d="M6.60791 40.1495L52.7219 39.9473V37.5202L28.9692 37.7993L43.6609 23.3664L42.6901 20.1304L26.6295 36.5332L13.5655 23.3624L11.9474 25.3849L23.4678 37.4595L6.60791 36.9903V40.1495Z" fill="#333333"/>
<path d="M0.135986 40.1494L20.5232 0.507568L31.8495 15.4744L37.6744 2.93462L59.6797 40.1494H56.4436L37.6744 9.00226L32.4967 20.733L20.8468 5.36168L3.04845 40.1494" fill="#333333"/>
<path d="M60 40.3517H56.3627L37.6938 9.37442L32.5322 21.0728L20.8727 5.68934L3.18429 40.2587L2.91246 40.0402L20.8209 5.03404L32.461 20.3932L37.6549 8.63012L56.5245 39.9472H59.3593L37.6905 3.30274L31.8818 15.8102L20.5491 0.831191L0.27183 40.2587L0 40.0402L20.4973 0.179932L31.8171 15.1387L37.6582 2.56653L37.8038 2.81328L60 40.3517Z" fill="#333333"/>
</g>
<defs>
<clipPath id="clip0">
<rect y="0.179932" width="60" height="40.1718" fill="white"/>
</clipPath>
</defs>
</svg>
