<svg width="88" height="86" viewBox="0 0 88 86" fill="none" xmlns="http://www.w3.org/2000/svg">
<rect x="13.9492" y="1.76091" width="73.3843" height="72.8848" transform="rotate(7.1293 13.9492 1.76091)" stroke="#333333" stroke-width="2"/>
<rect x="6.24902" y="55.2676" width="75.3843" height="19.838" transform="rotate(7.1293 6.24902 55.2676)" fill="#333333"/>
<rect x="1.7334" y="12.0312" width="73.3843" height="72.8848" fill="white" stroke="#333333" stroke-width="2"/>
<rect x="0.733398" y="66.0781" width="75.3843" height="19.838" fill="#333333"/>
<path d="M14.1426 66.0801L18.809 56.0728L23.4753 46.0655L27.5817 50.7117L32.8114 41.5563M74.9901 66.0801L63.0019 50.7117L57.8198 60.0042L48.3055 42.1826M32.8114 41.5563L40.6475 27.8379L48.3055 42.1826M32.8114 41.5563L36.5769 44.6685L40.6475 41.1016L45.0216 44.6685L48.3055 42.1826" stroke="#333333" stroke-width="2"/>
<path d="M30.5532 46.006L22.7314 33.0723L1.87305 67.3359" stroke="#333333" stroke-width="2"/>
<path d="M18.0586 40.4555L20.3673 42.8359L22.823 39.7188L25.516 42.5431L26.9447 40.4555" stroke="#333333" stroke-width="2"/>
<circle cx="58.7041" cy="26.2422" r="6.5" stroke="black" stroke-width="2"/>
</svg>
