<svg width="62" height="98" viewBox="0 0 62 98" fill="none" xmlns="http://www.w3.org/2000/svg">
<path d="M60.368 5.67226C59.4513 11.6311 50.4367 68.5072 46.0439 96.2004" stroke="#333333" stroke-width="2" stroke-linejoin="round"/>
<path d="M33.6811 37.9199C24.9531 45.0359 20.4659 46.4592 13.0879 45.4216" stroke="#333333" stroke-linejoin="round"/>
<path d="M55.467 46.3339H40.0294L33.4635 38.9263L28.995 52.8414C28.995 52.8414 39.7161 65.6411 41.444 68.4027C43.172 71.1643 41.444 87.6128 41.444 91.8861C41.444 96.1595 32.4958 98.9507 31.2585 91.8861C31.5879 85.1461 31.7313 79.6697 31.2585 72.9296C18.5523 60.5842 14.0032 54.3871 16.5459 46.3339L24.1851 23.9822C29.3119 22.4384 33.8714 23.4673 34.8193 26.5224C40.0294 43.3145 51.0908 37.8111 55.8736 39.5435C60.6564 41.2759 59.261 45.3498 55.467 46.3339Z" fill="#F0F0F0" stroke="#333333" stroke-width="2" stroke-linejoin="round"/>
<path d="M10.7317 94.0837C7.65409 95.296 3.17773 92.405 3.17773 89.7938C3.17773 87.1826 13.0936 71.2809 13.0936 71.2809L16.2305 53.7753C18.8747 59.4993 21.3852 63.6634 25.2783 66.913L22.6513 74.1124C22.6513 74.1124 13.8094 92.8713 10.7317 94.0837Z" stroke="#333333" stroke-width="2" stroke-linejoin="round"/>
<path d="M15.5497 13.4753C18.4 6.92195 17.7682 8.19132 23.1636 11.8924L24.0217 8.89122C21.0882 6.67728 20.9198 6.20266 19.1291 4.66121C15.9196 2.2696 14.5058 6.60021 13.2957 8.8912C9.84669 15.4205 8.03422 15.0376 6.79372 12.8975C5.55322 10.7574 4.41849 8.59586 3.54069 8.21603C2.66289 7.8362 0.928009 8.84239 0.368164 10.96C1.97773 9.20135 2.79423 8.54993 3.54069 10.1597C4.69638 12.6519 4.91402 15.9927 5.70065 18.0487C6.78516 20.8831 13.0352 18.6058 15.5497 13.4753Z" fill="#333333"/>
<path d="M27.5778 17.8206L27.1451 19.2569C27.6619 19.4126 28.2226 19.2786 28.6132 18.906L27.5778 17.8206ZM39.6839 6.27231L40.7193 7.35768C41.2181 6.88179 41.3284 6.12711 40.9864 5.52841L39.6839 6.27231ZM28.0105 16.3844C26.8467 16.0337 26.2578 15.4641 25.9449 14.8594C25.6097 14.2115 25.496 13.335 25.6485 12.2546C25.958 10.0623 27.2929 7.56282 28.7033 5.96171L26.4523 3.97863C24.7472 5.91414 23.0871 8.93759 22.678 11.8352C22.4713 13.2997 22.5674 14.8599 23.2805 16.2381C24.016 17.6594 25.314 18.7052 27.1451 19.2569L28.0105 16.3844ZM28.7033 5.96171C31.2408 3.08139 36.0563 2.94506 38.3814 7.01622L40.9864 5.52841C37.4926 -0.589109 30.146 -0.214269 26.4523 3.97863L28.7033 5.96171ZM38.6485 5.18694L26.5424 16.7353L28.6132 18.906L40.7193 7.35768L38.6485 5.18694Z" fill="#333333"/>
<circle cx="34.2083" cy="12.5431" r="7.92997" fill="#F0F0F0" stroke="#333333" stroke-width="2" stroke-linejoin="round"/>
<path d="M20.0273 25.0169C27.2493 21.8848 30.6166 21.2297 35.0841 25.5902" stroke="#333333" stroke-linejoin="round"/>
<path d="M19.8213 27.5895C27.0432 24.4574 31.3166 24.6244 35.784 28.9849" stroke="#333333" stroke-linejoin="round"/>
<path d="M12.8567 49.6416L21.2447 23.8783C13.0189 21.3469 0.0473647 44.4496 5.79486 47.1721L12.8567 49.6416Z" stroke="#333333" stroke-width="2" stroke-linejoin="round"/>
<path d="M34.6362 39.9984C29.4451 47.7034 23.9271 48.9558 14.043 47.5" stroke="#333333" stroke-linejoin="round"/>
</svg>
