<svg width="103" height="79" viewBox="0 0 103 79" fill="none" xmlns="http://www.w3.org/2000/svg">
<path d="M36.2635 73.8134C10.9343 81.7288 -8.69036 60.8496 7.25811 44.4457C21.7831 35.1469 35.9315 34.2126 40.9769 52.0595C79.3077 88.4201 97.3683 81.1205 98.4333 52.0595C98.4333 35.4348 93.7001 33.7843 77.5153 35.4348C66.0935 23.876 27.5492 19.4006 47.0402 41.1895C69.0768 51.1937 43.9478 24.0619 60.2065 14.2509C66.6087 9.5271 78.3452 10.9768 86.5631 5.14441" stroke="#333333" stroke-width="3" stroke-dasharray="4 4"/>
<path d="M88.8887 1.87012L95.1943 8.17569M101.5 14.4813L95.1943 8.17569M95.1943 8.17569L101.5 1.87012M95.1943 8.17569L88.8887 14.4813" stroke="#333333" stroke-width="3"/>
</svg>
