<svg width="77" height="95" viewBox="0 0 77 95" fill="none" xmlns="http://www.w3.org/2000/svg">
<path d="M25.1719 91.5602L25.172 52.786L41.094 48.9848L61.434 53.7156L75.8688 48.985V89.1466L61.434 93.0833L41.094 89.1466L25.1719 91.5602Z" stroke="#333333" stroke-width="2"/>
<path d="M62.1475 53.7157L61.1475 93.0833" stroke="#333333" stroke-width="2" stroke-dasharray="7 7"/>
<path d="M41.1104 48.9848L40.9342 89.5882" stroke="#333333" stroke-width="2" stroke-dasharray="7 7"/>
<path d="M55.1542 60.3256C55.1542 62.3127 53.4534 63.9656 51.3022 63.9656C49.151 63.9656 47.4502 62.3127 47.4502 60.3256C47.4502 58.3384 49.151 56.6855 51.3022 56.6855C53.4534 56.6855 55.1542 58.3384 55.1542 60.3256Z" fill="#333333" stroke="#333333"/>
<path d="M50.9806 68.0378L48.1924 62.3614H54.4121L50.9806 68.0378Z" fill="#333333" stroke="#333333"/>
<circle cx="51.3019" cy="60.3255" r="2.65253" fill="#F0F0F0"/>
<path d="M43.7449 7.76713C45.073 4.72908 39.1759 2.05412 37.8122 5.17367C35.7004 14.8149 30.1167 23.729 29.176 24.9296C28.2353 26.1301 34.3793 29.1916 34.9784 27.8211L43.7449 7.76713Z" stroke="#333333" stroke-width="2"/>
<path d="M6.26987 81.9439L30.3525 26.8532L32.8841 27.9598L8.8014 83.0506L6.26987 81.9439Z" fill="#F0F0F0" stroke="#333333" stroke-width="2"/>
<rect x="3.90451" y="81.1785" width="7.7104" height="0.868062" rx="0.434031" transform="rotate(23.6123 3.90451 81.1785)" stroke="#333333" stroke-width="0.868062"/>
<mask id="path-10-inside-1" fill="white">
<path d="M7.86328 83.9176L6.77584 86.4052C6.58381 86.8444 6.07204 87.0449 5.63276 86.8529C5.19348 86.6608 4.99304 86.149 5.18507 85.7098L6.27251 83.2222L7.86328 83.9176Z"/>
</mask>
<path d="M7.86328 83.9176L9.69583 84.7187L10.4969 82.8861L8.66437 82.085L7.86328 83.9176ZM6.27251 83.2222L7.0736 81.3896L5.24105 80.5885L4.43996 82.4211L6.27251 83.2222ZM6.03073 83.1165L4.94329 85.6041L8.60839 87.2063L9.69583 84.7187L6.03073 83.1165ZM7.01762 86.5109L8.10506 84.0233L4.43996 82.4211L3.35252 84.9087L7.01762 86.5109ZM5.47142 85.0547L7.06219 85.7501L8.66437 82.085L7.0736 81.3896L5.47142 85.0547ZM6.43385 85.0203C7.00666 85.2707 7.26803 85.938 7.01762 86.5109L3.35252 84.9087C2.71806 86.36 3.38029 88.0509 4.83167 88.6854L6.43385 85.0203ZM4.94329 85.6041C5.19369 85.0313 5.86104 84.7699 6.43385 85.0203L4.83167 88.6854C6.28304 89.3199 7.97394 88.6576 8.60839 87.2063L4.94329 85.6041Z" fill="#333333" mask="url(#path-10-inside-1)"/>
<path d="M2.76936 6.88617C1.54498 3.80487 7.5293 1.33123 8.78653 4.4952C10.5705 14.2025 15.849 23.3006 16.7484 24.5324C17.6479 25.7641 11.4037 28.6156 10.8514 27.2257L2.76936 6.88617Z" stroke="#333333" stroke-width="2"/>
<path d="M37.7092 82.29L15.5068 26.415L12.9393 27.4352L35.1416 83.3103L37.7092 82.29Z" fill="#F0F0F0" stroke="#333333" stroke-width="2"/>
<rect x="-0.243078" y="0.56363" width="7.7104" height="0.868062" rx="0.434031" transform="matrix(-0.929321 0.369273 0.369273 0.929321 39.6657 81.1712)" stroke="#333333" stroke-width="0.868062"/>
<mask id="path-15-inside-2" fill="white">
<path d="M36.0527 84.2086L37.0553 86.7316C37.2323 87.1771 37.737 87.3948 38.1825 87.2178C38.6281 87.0407 38.8457 86.536 38.6687 86.0905L37.6662 83.5675L36.0527 84.2086Z"/>
</mask>
<path d="M36.0527 84.2086L34.1941 84.9471L33.4555 83.0885L35.3142 82.35L36.0527 84.2086ZM37.6662 83.5675L36.9276 81.7089L38.7862 80.9703L39.5248 82.829L37.6662 83.5675ZM37.9114 83.4701L38.9139 85.9931L35.1966 87.4702L34.1941 84.9471L37.9114 83.4701ZM36.81 86.8291L35.8075 84.306L39.5248 82.829L40.5273 85.352L36.81 86.8291ZM38.4047 85.4261L36.7913 86.0672L35.3142 82.35L36.9276 81.7089L38.4047 85.4261ZM37.444 85.3591C36.863 85.59 36.5792 86.2481 36.81 86.8291L40.5273 85.352C41.1123 86.824 40.3931 88.4915 38.9211 89.0764L37.444 85.3591ZM38.9139 85.9931C38.6831 85.4121 38.025 85.1283 37.444 85.3591L38.9211 89.0764C37.449 89.6613 35.7816 88.9422 35.1966 87.4702L38.9139 85.9931Z" fill="#333333" mask="url(#path-15-inside-2)"/>
</svg>
