<svg width="120" height="63" viewBox="0 0 120 63" fill="none" xmlns="http://www.w3.org/2000/svg">
<path d="M18.8662 59.9145L25.6108 44.8066L32.3555 29.6987L38.2907 36.713L45.8495 22.8912M106.813 59.9145L89.4858 36.713L81.9957 50.7418L68.2442 23.8367M45.8495 22.8912L57.1756 2.18066L68.2442 23.8367M45.8495 22.8912L51.2921 27.5896L57.1756 22.2048L63.4977 27.5896L68.2442 23.8367" stroke="#333333" stroke-width="2"/>
<path d="M42.5852 29.6111L31.2798 10.084L1.13184 61.8148" stroke="#333333" stroke-width="2"/>
<path d="M24.5254 21.2285L27.8623 24.8223L31.4118 20.1162L35.3041 24.3802L37.3691 21.2285" stroke="#333333" stroke-width="2"/>
<path d="M67.954 19.069C66.7966 17.575 65.9848 17.295 63.4243 16.5635C67.1938 16.6282 71.8705 17.5252 73.4307 19.0549C74.991 20.5845 74.2716 22.5633 71.9605 22.3356C69.6366 21.8057 69.5547 21.135 67.954 19.069Z" fill="#3F3250"/>
<path d="M79.9513 23.336L78.6661 25.6596C78.6661 25.6596 119.406 48.6026 118.733 46.0342C118.06 43.4658 79.9513 23.336 79.9513 23.336Z" fill="#333333"/>
<rect x="72.6093" y="21.87" width="1.89968" height="6.89715" transform="rotate(-61.0519 72.6093 21.87)" fill="white" stroke="#333333" stroke-width="0.75"/>
</svg>
