<svg width="121" height="64" viewBox="0 0 121 64" fill="none" xmlns="http://www.w3.org/2000/svg">
<path d="M19.3828 60.7201L26.1274 45.6122L32.8721 30.5043L38.8073 37.5187L46.3661 23.6968M107.33 60.7201L90.0024 37.5187L82.5123 51.5475L68.7608 24.6423M46.3661 23.6968L57.6922 2.98633L68.7608 24.6423M46.3661 23.6968L51.8087 28.3953L57.6922 23.0104L64.0143 28.3953L68.7608 24.6423" stroke="white" stroke-width="2"/>
<path d="M43.1018 30.4168L31.7964 10.8896L1.64844 62.6205" stroke="white" stroke-width="2"/>
<path d="M25.043 22.0342L28.3799 25.628L31.9293 20.9219L35.8217 25.1859L37.8867 22.0342" stroke="white" stroke-width="2"/>
<path d="M81.3566 22.7706L80.0713 25.0942C80.0713 25.0942 120.811 48.0372 120.138 45.4688C119.465 42.9004 81.3566 22.7706 81.3566 22.7706Z" fill="#F0F0F0"/>
<path d="M68.8329 18.3941C67.6755 16.9002 66.8637 16.6202 64.3032 15.8887C68.0727 15.9534 72.7494 16.8504 74.3096 18.3801C75.8699 19.9097 75.1505 21.8885 72.8394 21.6607C70.5156 21.1309 70.4336 20.4602 68.8329 18.3941Z" fill="#3F3250"/>
<rect x="74.0155" y="21.3045" width="1.89968" height="6.89715" transform="rotate(-61.0519 74.0155 21.3045)" fill="#C3C3C3" stroke="#A9A9A9" stroke-width="0.75"/>
</svg>
